<?xml version="1.0" encoding="UTF-8" standalone="no"?>
<svg
   xmlns:dc="http://purl.org/dc/elements/1.1/"
   xmlns:cc="http://creativecommons.org/ns#"
   xmlns:rdf="http://www.w3.org/1999/02/22-rdf-syntax-ns#"
   xmlns:svg="http://www.w3.org/2000/svg"
   xmlns="http://www.w3.org/2000/svg"
   id="svg4"
   version="1.1"
   viewBox="0 0 300 300"
   height="300"
   width="300">
  <metadata
     id="metadata10">
    <rdf:RDF>
      <cc:Work
         rdf:about="">
        <dc:format>image/svg+xml</dc:format>
        <dc:type
           rdf:resource="http://purl.org/dc/dcmitype/StillImage" />
      </cc:Work>
    </rdf:RDF>
  </metadata>
  <defs
     id="defs8" />
  <path
     id="path2"
     d="M58.2083058,163.947669 L59.7624152,259.630546 C59.8066903,262.356464 60.0607825,262.594027 62.8547802,262.601668 L239.802429,263.085593 C242.606918,263.093263 242.842869,262.859787 242.798549,260.131122 L241.244439,164.448245 M240.555491,122.031327 L239.369816,49.0320851 C239.325578,46.3084587 239.081491,46.0727797 236.265747,46.065079 L201.703079,45.9705554 C198.892088,45.9628678 198.650897,46.1981398 198.69515,48.9227178 L199.177114,78.5960626 M57.9800641,163.801069 L22.9204926,163.705186 C17.2992099,163.689813 20.8711243,160.464155 24.6302892,156.479561 L144.455612,34.4857917 C146.333786,32.4949881 149.436114,32.5082417 151.374485,34.5047137 L199.234442,79.6955728 M240.812665,122.520062 C254.213327,136.322396 275.173547,157.164759 275.173547,157.164759 C279.060845,161.168575 282.733848,164.415736 277.132512,164.400417 L241.079118,164.301817 M184.286412,206.217717 C166.134779,188.830279 137.16421,188.748636 119.578833,206.035362 M199.969879,185.054108 C172.540746,158.779758 128.762996,158.656387 102.189538,184.77855 M215.402752,161.423722 C179.099487,126.648847 121.158348,126.485561 85.9875947,161.059013"
     stroke-width="8.729"
     stroke-linecap="round"
     stroke="#000"
     fill="none" />
</svg>
