<?xml version="1.0" encoding="utf-8"?>
<!-- Generator: Adobe Illustrator 21.0.0, SVG Export Plug-In . SVG Version: 6.00 Build 0)  -->
<svg version="1.1"
	 id="svg4" xmlns:cc="http://creativecommons.org/ns#" xmlns:dc="http://purl.org/dc/elements/1.1/" xmlns:rdf="http://www.w3.org/1999/02/22-rdf-syntax-ns#" xmlns:svg="http://www.w3.org/2000/svg"
	 xmlns="http://www.w3.org/2000/svg" xmlns:xlink="http://www.w3.org/1999/xlink" x="0px" y="0px" viewBox="0 0 280 256.2"
	 style="enable-background:new 0 0 280 256.2;" xml:space="preserve">
<path d="M269.2,135.1l-1-1c-0.2-0.2-20.1-20-33.4-33.6L233.7,29c-0.1-5.1-2.2-7.2-7.5-7.3l-34.6-0.1c-1.7,0-4,0-5.7,1.8
	c-1.7,1.8-1.7,4.1-1.7,5.6l0.3,20.4l-40.2-38c-1.8-1.8-4.2-2.8-6.6-2.8c-2.5,0-4.8,1-6.5,2.8L11.5,133.6l-0.9,0.9
	c-3.1,3.3-6.1,6.4-4.5,10.1c1,2.3,3.3,3.5,6.9,3.5l31,0.1l1.5,91.5c0.1,5.1,2.3,7.3,7.4,7.3l176.9,0.5c0.1,0,0.2,0,0.3,0
	c1.6,0,3.8-0.1,5.4-1.8c1.7-1.8,1.7-4.1,1.7-5.6l-1.5-91.4l31.4,0.1c0,0,0,0,0,0c3.5,0,5.8-1.2,6.8-3.5
	C275.5,141.6,272.5,138.4,269.2,135.1z M177.4,189.3c-0.9,0.9-2,1.3-3.2,1.3c-1.1,0-2.2-0.4-3-1.2c-16.4-15.7-42.7-15.8-58.6-0.2
	c-1.7,1.7-4.5,1.7-6.2-0.1c-1.7-1.7-1.7-4.5,0.1-6.2c19.2-18.9,51-18.8,70.8,0.1C179,184.8,179.1,187.6,177.4,189.3z M193.1,168.1
	c-0.9,0.9-2,1.3-3.2,1.3c-1.1,0-2.2-0.4-3-1.2c-25.7-24.6-66.8-24.8-91.7-0.3c-1.7,1.7-4.5,1.7-6.2-0.1c-1.7-1.7-1.7-4.5,0.1-6.2
	c28.2-27.7,74.8-27.6,103.9,0.2C194.7,163.6,194.8,166.4,193.1,168.1z M208.6,144.5c-0.9,0.9-2,1.3-3.2,1.3c-1.1,0-2.2-0.4-3-1.2
	c-34.6-33.1-89.9-33.3-123.3-0.4c-1.7,1.7-4.5,1.7-6.2-0.1c-1.7-1.7-1.7-4.5,0.1-6.2c36.8-36.2,97.6-36,135.5,0.3
	C210.2,140,210.2,142.8,208.6,144.5z"/>
</svg>
