<?xml version="1.0" encoding="UTF-8"?>
<svg width="250px" height="247px" viewBox="0 0 250 247" version="1.1" xmlns="http://www.w3.org/2000/svg" xmlns:xlink="http://www.w3.org/1999/xlink">
    <!-- Generator: Sketch 49 (51002) - http://www.bohemiancoding.com/sketch -->
    <title>Untitled</title>
    <desc>Created with Sketch.</desc>
    <defs></defs>
    <g id="Page-1" stroke="none" stroke-width="1" fill="none" fill-rule="evenodd">
        <g id="Group" fill="#000000">
            <g id="icon">
                <path d="M239.602921,198.487579 C246.123489,198.576874 248.856339,204.308136 248.856339,211.361328 C248.856339,226.792557 235.989319,246.368149 204.795425,246.368149 C152.803619,246.368149 147.779724,199.45816 124.427452,199.45816 C101.07518,199.45816 96.0527115,246.368149 44.0609284,246.368149 C12.8655519,246.368149 0,226.792557 0,211.361328 C0,204.308136 2.8191965,198.576874 9.2534113,198.487579 C9.2534113,203.778213 13.658495,217.887497 31.7235155,217.887497 C54.2828283,217.887497 67.1483736,194.69603 67.1483736,166.91954 C67.1483736,138.08609 45.3834429,125.124489 45.3834429,79.0943451 C45.3834457,35.3581848 80.8068771,0 124.427452,0 C168.135788,0 203.472885,35.3581848 203.472885,79.0943451 C203.472885,125.124489 181.707931,138.08609 181.707931,166.91954 C181.707931,194.69603 194.572052,217.887497 217.131363,217.887497 C235.196426,217.887497 239.602921,203.778213 239.602921,198.487579 Z M206.469208,153.164368 C220.304749,153.164368 228.588181,142.49527 228.500382,132.795319 C228.411194,125.300018 222.771347,123.184654 218.366287,123.360336 C218.366287,118.422501 223.741333,115.777222 228.500382,115.777222 C237.047211,115.777222 249.296844,123.888802 249.296844,142.142487 C249.296844,173.8862 227.002304,190.992157 193.779236,190.992157 C190.519669,184.99736 188.756806,176.973602 188.756806,166.919388 C188.756806,161.012451 189.549729,155.10405 191.928558,149.197113 C196.687668,152.195221 201.006409,153.164368 206.469208,153.164368 Z M55.0763741,190.992157 C22.7354737,190.640808 0.0005761,173.975479 0.0005761,143.023773 C0.0005761,124.153763 11.8083897,115.777222 20.3566419,115.777222 C25.1143075,115.777222 30.4907838,118.422501 30.4907838,123.360336 C26.0842572,123.184654 20.4444276,125.300018 20.3566419,132.795319 C20.2688581,142.49527 28.5508767,153.164368 42.3863946,153.164368 C47.9384309,153.164368 52.167946,152.195221 56.9270631,149.197113 C59.3058892,155.10405 60.0988046,161.012451 60.0988046,166.919388 C60.0988045,176.973602 58.337368,184.99736 55.0763741,190.992157 Z M166.014862,74.862236 C166.014862,97.8102722 147.494736,116.41169 124.646957,116.41169 C101.802101,116.41169 83.2819824,97.8102722 83.2819824,74.862236 C83.2819824,51.9170913 101.802101,33.3127784 124.646957,33.3127784 C147.494736,33.3127785 166.014862,51.9170914 166.014862,74.862236 Z" id="Shape"></path>
                <path d="M146.184021,62.8782272 C144.254044,64.8081817 141.124924,64.8081817 139.194946,62.8782272 C137.265015,60.9482498 137.265015,57.8191642 139.194946,55.8891868 L143.93985,51.1442947 C141.837738,50.045063 139.448441,49.4200515 136.911926,49.4200515 C128.521561,49.4200515 121.719826,56.2217902 121.719826,64.6121444 C121.719826,73.0024986 128.521561,79.8042373 136.911926,79.8042373 C145.302277,79.8042373 152.104019,73.0024947 152.104019,64.6121444 C152.104019,62.3678817 151.613495,60.2394485 150.739975,58.3222732 L146.184021,62.8782272 Z" id="Path"></path>
            </g>
        </g>
    </g>
</svg>